<?xml version="1.0" encoding="UTF-8" standalone="no"?>
<!-- Created with Inkscape (http://www.inkscape.org/) -->
<svg id="svg4488" xmlns:rdf="http://www.w3.org/1999/02/22-rdf-syntax-ns#" xmlns="http://www.w3.org/2000/svg" height="297mm" width="210mm" version="1.1" xmlns:cc="http://creativecommons.org/ns#" xmlns:dc="http://purl.org/dc/elements/1.1/" viewBox="0 0 744.09448819 1052.3622047">
 <defs id="defs4490">
  <marker id="marker13657" refY="0.0" refX="0.0" orient="auto" overflow="visible">
   <path id="path13659" stroke-linejoin="round" d="m8.7186 4.0337l-10.926-4.0177 10.926-4.0177c-1.7455 2.3721-1.7355 5.6174 0 8.0354z" fill-rule="evenodd" transform="scale(.6) rotate(180) translate(0)" stroke="#000" stroke-width=".625"/>
  </marker>
  <marker id="marker11203" refY="0.0" refX="0.0" overflow="visible" orient="auto">
   <path id="path11205" stroke-linejoin="round" d="m8.7186 4.0337l-10.926-4.0177 10.926-4.0177c-1.7455 2.3721-1.7355 5.6174 0 8.0354z" fill-rule="evenodd" transform="scale(.6) rotate(180) translate(0)" stroke="#000" stroke-width=".625"/>
  </marker>
  <marker id="marker5780" refY="0.0" refX="0.0" orient="auto" overflow="visible">
   <path id="path5782" stroke-linejoin="round" d="m8.7186 4.0337l-10.926-4.0177 10.926-4.0177c-1.7455 2.3721-1.7355 5.6174 0 8.0354z" fill-rule="evenodd" transform="scale(.6) rotate(180) translate(0)" stroke="#000" stroke-width=".625"/>
  </marker>
  <marker id="marker5665" refY="0.0" refX="0.0" overflow="visible" orient="auto">
   <path id="path5667" stroke-linejoin="round" d="m8.7186 4.0337l-10.926-4.0177 10.926-4.0177c-1.7455 2.3721-1.7355 5.6174 0 8.0354z" fill-rule="evenodd" transform="scale(.6) rotate(180) translate(0)" stroke="#000" stroke-width=".625"/>
  </marker>
  <marker id="Arrow2Mend" refY="0.0" refX="0.0" orient="auto" overflow="visible">
   <path id="path5318" stroke-linejoin="round" d="m8.7186 4.0337l-10.926-4.0177 10.926-4.0177c-1.7455 2.3721-1.7355 5.6174 0 8.0354z" fill-rule="evenodd" transform="scale(.6) rotate(180) translate(0)" stroke="#000" stroke-width=".625"/>
  </marker>
  <marker id="marker5665-1" refY="0" refX="0" overflow="visible" orient="auto">
   <path id="path5667-8" stroke-linejoin="round" d="m8.7186 4.0337-10.926-4.0177 10.926-4.0177c-1.7455 2.3721-1.7354 5.6175-6e-7 8.0354z" fill-rule="evenodd" transform="scale(-.6)" stroke="#000" stroke-width=".625"/>
  </marker>
  <marker id="marker5665-1-3" refY="0" refX="0" overflow="visible" orient="auto">
   <path id="path5667-8-1" stroke-linejoin="round" d="m8.7186 4.0337-10.926-4.0177 10.926-4.0177c-1.7455 2.3721-1.7354 5.6175-6e-7 8.0354z" fill-rule="evenodd" transform="scale(-.6)" stroke="#000" stroke-width=".625"/>
  </marker>
 </defs>
 <metadata id="metadata4493">
  <rdf:RDF>
   <cc:Work rdf:about="">
    <dc:format>image/svg+xml</dc:format>
    <dc:type rdf:resource="http://purl.org/dc/dcmitype/StillImage"/>
    <dc:title/>
   </cc:Work>
  </rdf:RDF>
 </metadata>
 <g id="layer1">
  <text id="text4138" style="word-spacing:0px;letter-spacing:0px" xml:space="preserve" font-size="7.5px" y="467.29974" x="149.45535" font-family="sans-serif" line-height="125%" fill="#000000"><tspan id="tspan4140" x="149.45535" y="467.29974">A</tspan></text>
  <text id="text4142" style="word-spacing:0px;letter-spacing:0px" xml:space="preserve" font-size="7.5px" y="477.36221" x="149.33035" font-family="sans-serif" line-height="125%" fill="#000000"><tspan id="tspan4144" x="149.33035" y="477.36221">B</tspan><tspan id="tspan4146" x="149.33035" y="486.73721"/></text>
  <path id="path5233" stroke-linejoin="round" d="m127.54 477.02h15v-20h-15z" stroke="#000" stroke-linecap="round" stroke-width=".5" fill="none"/>
  <path id="path5235" stroke-linejoin="round" d="m132.28 470.86h5.5223v6.3112h-5.5223z" fill-rule="evenodd" stroke="#000" stroke-linecap="round" stroke-width="1.5778"/>
  <g stroke="#000" stroke-width=".5" fill="none">
   <path id="path5250" d="m157 467.36h10v-5h10v5h5"/>
   <path id="path5252" d="m182 467.36h5v-5h8" stroke-dasharray="1, 1"/>
   <path id="path5254" d="m157 472.36h5v5h10v-5h10v5"/>
   <path id="path5256" d="m182 477.36h10v-5h5" stroke-dasharray="1, 1"/>
   <path id="path5258" d="m196.01 462.36h-3" stroke-dasharray="1, 1"/>
  </g>
  <text id="text5281" style="word-spacing:0px;letter-spacing:0px" xml:space="preserve" font-size="5px" y="471.8454" x="219.57645" font-family="sans-serif" line-height="125%" fill="#000000"><tspan id="tspan5283" x="219.57645" y="471.8454">RS422</tspan></text>
  <path id="path5285" marker-end="url(#Arrow2Mend)" d="m199 469.87h14" stroke="#000" stroke-width=".5" fill="none"/>
  <path id="path5609" d="m215 472.36s0 5 5 5h15s5 0 5-5v-5s0-5-5-5h-15s-5 0-5 5v5z" stroke="#000" stroke-width=".5" fill="none"/>
  <text id="text5281-3" style="word-spacing:0px;letter-spacing:0px" xml:space="preserve" font-size="5px" y="471.8454" x="265.15594" font-family="sans-serif" line-height="125%" fill="#000000"><tspan id="tspan5283-5" x="265.15594" y="471.8454">TTL</tspan></text>
  <path id="path5285-6" marker-end="url(#marker5665)" d="m241.04 469.87h14" stroke="#000" stroke-width=".5" fill="none"/>
  <path id="path5609-2" d="m257.04 472.36s0 5 5 5h15s5 0 5-5v-5s0-5-5-5h-15s-5 0-5 5v5z" stroke="#000" stroke-width=".5" fill="none"/>
  <text id="text5281-3-2" style="word-spacing:0px;letter-spacing:0px" xml:space="preserve" font-size="5px" y="471.24161" x="303.39355" font-family="sans-serif" line-height="125%" fill="#000000"><tspan id="tspan5283-5-7" x="303.39355" y="471.24161">μController</tspan></text>
  <g stroke="#000" stroke-width=".5" fill="none">
   <path id="path5285-6-0" marker-end="url(#marker5780)" d="m284.04 469.87h14"/>
   <path id="path5832" d="m300 467.36s0-5 5-5h25s5 0 5 5v5s0 5-5 5h-25s-5 0-5-5v-5"/>
   <path id="path11174" marker-end="url(#marker11203)" d="m318 479.36v5s0 5-5 5h-145s-5 0-5 5v5"/>
  </g>
  <text id="text5281-0" style="word-spacing:0px;letter-spacing:0px" xml:space="preserve" font-size="5px" y="511.10382" x="159.02231" font-family="sans-serif" line-height="125%" fill="#000000"><tspan id="tspan5283-6" x="159.02231" y="511.10382">SPI</tspan></text>
  <path id="path5609-26" d="m150.45 511.62s0 5 5 5h15s5 0 5-5v-5s0-5-5-5h-15s-5 0-5 5v5z" stroke="#000" stroke-width=".5" fill="none"/>
  <path id="path5285-6-7" marker-end="url(#marker5665-1)" d="m177.02 508.8h14" stroke="#000" stroke-width=".5" fill="none"/>
  <text id="text5281-0-9" style="word-spacing:0px;letter-spacing:0px" xml:space="preserve" font-size="5px" y="510.73523" x="200.66415" font-family="sans-serif" line-height="125%" fill="#000000"><tspan id="tspan5283-6-2" x="200.66415" y="510.73523">NRF</tspan></text>
  <path id="path5609-26-0" d="m193.21 511.27s0 5 5 5h15s5 0 5-5v-5s0-5-5-5h-15s-5 0-5 5v5z" stroke="#000" stroke-width=".5" fill="none"/>
  <g id="g8665-9-8" stroke-linejoin="round" transform="matrix(.38505 0 0 .38505 7.2772 494.44)" stroke="#000" fill="none">
   <path id="path4994-9-8-15-6-8" d="m552.42 29.862a10 10 0 0 1 5 8.6603 10 10 0 0 1 -5 8.6603"/>
   <path id="path4996-3-7-9-1-4" d="m554.92 25.532a15 15 0 0 1 7.5 12.99 15 15 0 0 1 -7.5 12.99"/>
   <path id="path4998-6-9-7-0-3" d="m557.42 21.202a20 20 0 0 1 10 17.321 20 20 0 0 1 -10 17.321"/>
  </g>
  <text id="text5281-0-9-2" style="word-spacing:0px;letter-spacing:0px" xml:space="preserve" font-size="5px" y="510.73523" x="249.50583" font-family="sans-serif" line-height="125%" fill="#000000"><tspan id="tspan5283-6-2-3" x="249.50583" y="510.73523">NRF</tspan></text>
  <path id="path5609-26-0-7" d="m266.8 511.27s0 5-5 5h-15s-5 0-5-5v-5s0-5 5-5h15s5 0 5 5v5z" stroke="#000" stroke-width=".5" fill="none"/>
  <g id="g8665-9-8-5" stroke-linejoin="round" transform="matrix(-.38505 0 0 .38505 452.73 494.44)" stroke="#000" fill="none">
   <path id="path4994-9-8-15-6-8-9" d="m552.42 29.862a10 10 0 0 1 5 8.6603 10 10 0 0 1 -5 8.6603"/>
   <path id="path4996-3-7-9-1-4-2" d="m554.92 25.532a15 15 0 0 1 7.5 12.99 15 15 0 0 1 -7.5 12.99"/>
   <path id="path4998-6-9-7-0-3-2" d="m557.42 21.202a20 20 0 0 1 10 17.321 20 20 0 0 1 -10 17.321"/>
  </g>
  <text id="text5281-0-9-8" style="word-spacing:0px;letter-spacing:0px" xml:space="preserve" font-size="5px" y="525.14221" x="216.37959" font-family="sans-serif" line-height="125%" fill="#000000"><tspan id="tspan5283-6-2-9" x="216.37959" y="525.14221">Air Transfer</tspan></text>
  <text id="text5281-0-6" style="word-spacing:0px;letter-spacing:0px" xml:space="preserve" font-size="5px" y="510.78717" x="292.849" font-family="sans-serif" line-height="125%" fill="#000000"><tspan id="tspan5283-6-1" x="292.849" y="510.78717">SPI</tspan></text>
  <g stroke="#000" stroke-width=".5" fill="none">
   <path id="path5609-26-2" d="m284.27 511.3s0 5 5 5h15s5 0 5-5v-5s0-5-5-5h-15s-5 0-5 5v5z"/>
   <path id="path5285-6-7-9" marker-end="url(#marker13657)" d="m311.04 508.84h14"/>
   <path id="path5285-6-7-94" marker-end="url(#marker5665-1-3)" d="m268.02 508.8h14"/>
  </g>
  <text id="text5281-0-6-7" style="word-spacing:0px;letter-spacing:0px" xml:space="preserve" font-size="5px" y="510.7312" x="331.98328" font-family="sans-serif" line-height="125%" fill="#000000"><tspan id="tspan5283-6-1-8" x="331.98328" y="510.7312">MicroZed</tspan></text>
  <path id="path5832-5" d="m326.43 506.26s0-5 5-5h25s5 0 5 5v5s0 5-5 5h-25s-5 0-5-5v-5" stroke="#000" stroke-width=".5" fill="none"/>
  <path id="path13750" d="m125 480.27s-1 0-1 1 1 1 1 1h20s1 0 1-1-1-1-1-1h-20z" fill-rule="evenodd" stroke="#000" stroke-width="1px"/>
 </g>
</svg>
