<?xml version="1.0" encoding="UTF-8" standalone="no"?>
<!-- Created with Inkscape (http://www.inkscape.org/) -->

<svg
   xmlns:dc="http://purl.org/dc/elements/1.1/"
   xmlns:cc="http://creativecommons.org/ns#"
   xmlns:rdf="http://www.w3.org/1999/02/22-rdf-syntax-ns#"
   xmlns:svg="http://www.w3.org/2000/svg"
   xmlns="http://www.w3.org/2000/svg"
   xmlns:sodipodi="http://sodipodi.sourceforge.net/DTD/sodipodi-0.dtd"
   xmlns:inkscape="http://www.inkscape.org/namespaces/inkscape"
   width="210mm"
   height="297mm"
   viewBox="0 0 744.09448819 1052.3622047"
   id="svg4488"
   version="1.1"
   inkscape:version="0.91 r13725"
   sodipodi:docname="encoder_data_throughput.svg">
  <defs
     id="defs4490">
    <marker
       inkscape:stockid="Arrow2Mend"
       orient="auto"
       refY="0.0"
       refX="0.0"
       id="marker13657"
       style="overflow:visible;"
       inkscape:isstock="true">
      <path
         id="path13659"
         style="fill-rule:evenodd;stroke-width:0.625;stroke-linejoin:round;stroke:#000000;stroke-opacity:1;fill:#000000;fill-opacity:1"
         d="M 8.7185878,4.0337352 L -2.2072895,0.016013256 L 8.7185884,-4.0017078 C 6.9730900,-1.6296469 6.9831476,1.6157441 8.7185878,4.0337352 z "
         transform="scale(0.6) rotate(180) translate(0,0)" />
    </marker>
    <marker
       inkscape:isstock="true"
       style="overflow:visible;"
       id="marker11203"
       refX="0.0"
       refY="0.0"
       orient="auto"
       inkscape:stockid="Arrow2Mend"
       inkscape:collect="always">
      <path
         transform="scale(0.6) rotate(180) translate(0,0)"
         d="M 8.7185878,4.0337352 L -2.2072895,0.016013256 L 8.7185884,-4.0017078 C 6.9730900,-1.6296469 6.9831476,1.6157441 8.7185878,4.0337352 z "
         style="fill-rule:evenodd;stroke-width:0.625;stroke-linejoin:round;stroke:#000000;stroke-opacity:1;fill:#000000;fill-opacity:1"
         id="path11205" />
    </marker>
    <marker
       inkscape:stockid="Arrow2Mend"
       orient="auto"
       refY="0.0"
       refX="0.0"
       id="marker5780"
       style="overflow:visible;"
       inkscape:isstock="true"
       inkscape:collect="always">
      <path
         id="path5782"
         style="fill-rule:evenodd;stroke-width:0.625;stroke-linejoin:round;stroke:#000000;stroke-opacity:1;fill:#000000;fill-opacity:1"
         d="M 8.7185878,4.0337352 L -2.2072895,0.016013256 L 8.7185884,-4.0017078 C 6.9730900,-1.6296469 6.9831476,1.6157441 8.7185878,4.0337352 z "
         transform="scale(0.6) rotate(180) translate(0,0)" />
    </marker>
    <marker
       inkscape:isstock="true"
       style="overflow:visible;"
       id="marker5665"
       refX="0.0"
       refY="0.0"
       orient="auto"
       inkscape:stockid="Arrow2Mend"
       inkscape:collect="always">
      <path
         transform="scale(0.6) rotate(180) translate(0,0)"
         d="M 8.7185878,4.0337352 L -2.2072895,0.016013256 L 8.7185884,-4.0017078 C 6.9730900,-1.6296469 6.9831476,1.6157441 8.7185878,4.0337352 z "
         style="fill-rule:evenodd;stroke-width:0.625;stroke-linejoin:round;stroke:#000000;stroke-opacity:1;fill:#000000;fill-opacity:1"
         id="path5667" />
    </marker>
    <marker
       inkscape:stockid="Arrow2Mend"
       orient="auto"
       refY="0.0"
       refX="0.0"
       id="Arrow2Mend"
       style="overflow:visible;"
       inkscape:isstock="true"
       inkscape:collect="always">
      <path
         id="path5318"
         style="fill-rule:evenodd;stroke-width:0.625;stroke-linejoin:round;stroke:#000000;stroke-opacity:1;fill:#000000;fill-opacity:1"
         d="M 8.7185878,4.0337352 L -2.2072895,0.016013256 L 8.7185884,-4.0017078 C 6.9730900,-1.6296469 6.9831476,1.6157441 8.7185878,4.0337352 z "
         transform="scale(0.6) rotate(180) translate(0,0)" />
    </marker>
    <marker
       inkscape:stockid="Arrow2Lend"
       orient="auto"
       refY="0.0"
       refX="0.0"
       id="Arrow2Lend"
       style="overflow:visible;"
       inkscape:isstock="true">
      <path
         id="path5312"
         style="fill-rule:evenodd;stroke-width:0.625;stroke-linejoin:round;stroke:#000000;stroke-opacity:1;fill:#000000;fill-opacity:1"
         d="M 8.7185878,4.0337352 L -2.2072895,0.016013256 L 8.7185884,-4.0017078 C 6.9730900,-1.6296469 6.9831476,1.6157441 8.7185878,4.0337352 z "
         transform="scale(1.1) rotate(180) translate(1,0)" />
    </marker>
    <marker
       inkscape:stockid="Arrow2Mend"
       orient="auto"
       refY="0"
       refX="0"
       id="Arrow2Mend-7"
       style="overflow:visible"
       inkscape:isstock="true">
      <path
         inkscape:connector-curvature="0"
         id="path5318-5"
         style="fill:#000000;fill-opacity:1;fill-rule:evenodd;stroke:#000000;stroke-width:0.625;stroke-linejoin:round;stroke-opacity:1"
         d="M 8.7185878,4.0337352 -2.2072895,0.01601326 8.7185884,-4.0017078 c -1.7454984,2.3720609 -1.7354408,5.6174519 -6e-7,8.035443 z"
         transform="scale(-0.6,-0.6)" />
    </marker>
    <marker
       inkscape:isstock="true"
       style="overflow:visible"
       id="marker5665-9"
       refX="0"
       refY="0"
       orient="auto"
       inkscape:stockid="Arrow2Mend">
      <path
         inkscape:connector-curvature="0"
         transform="scale(-0.6,-0.6)"
         d="M 8.7185878,4.0337352 -2.2072895,0.01601326 8.7185884,-4.0017078 c -1.7454984,2.3720609 -1.7354408,5.6174519 -6e-7,8.035443 z"
         style="fill:#000000;fill-opacity:1;fill-rule:evenodd;stroke:#000000;stroke-width:0.625;stroke-linejoin:round;stroke-opacity:1"
         id="path5667-1" />
    </marker>
    <marker
       inkscape:isstock="true"
       style="overflow:visible"
       id="marker5665-1"
       refX="0"
       refY="0"
       orient="auto"
       inkscape:stockid="Arrow2Mend"
       inkscape:collect="always">
      <path
         inkscape:connector-curvature="0"
         transform="scale(-0.6,-0.6)"
         d="M 8.7185878,4.0337352 -2.2072895,0.01601326 8.7185884,-4.0017078 c -1.7454984,2.3720609 -1.7354408,5.6174519 -6e-7,8.035443 z"
         style="fill:#000000;fill-opacity:1;fill-rule:evenodd;stroke:#000000;stroke-width:0.625;stroke-linejoin:round;stroke-opacity:1"
         id="path5667-8" />
    </marker>
    <marker
       inkscape:isstock="true"
       style="overflow:visible"
       id="marker5665-1-3"
       refX="0"
       refY="0"
       orient="auto"
       inkscape:stockid="Arrow2Mend"
       inkscape:collect="always">
      <path
         inkscape:connector-curvature="0"
         transform="scale(-0.6,-0.6)"
         d="M 8.7185878,4.0337352 -2.2072895,0.01601326 8.7185884,-4.0017078 c -1.7454984,2.3720609 -1.7354408,5.6174519 -6e-7,8.035443 z"
         style="fill:#000000;fill-opacity:1;fill-rule:evenodd;stroke:#000000;stroke-width:0.625;stroke-linejoin:round;stroke-opacity:1"
         id="path5667-8-1" />
    </marker>
  </defs>
  <sodipodi:namedview
     id="base"
     pagecolor="#ffffff"
     bordercolor="#666666"
     borderopacity="1.0"
     inkscape:pageopacity="0.0"
     inkscape:pageshadow="2"
     inkscape:zoom="6.3160799"
     inkscape:cx="249.50269"
     inkscape:cy="602.93569"
     inkscape:document-units="px"
     inkscape:current-layer="layer1"
     showgrid="true"
     inkscape:window-width="2560"
     inkscape:window-height="1367"
     inkscape:window-x="0"
     inkscape:window-y="27"
     inkscape:window-maximized="1">
    <inkscape:grid
       type="xygrid"
       id="grid5036" />
  </sodipodi:namedview>
  <metadata
     id="metadata4493">
    <rdf:RDF>
      <cc:Work
         rdf:about="">
        <dc:format>image/svg+xml</dc:format>
        <dc:type
           rdf:resource="http://purl.org/dc/dcmitype/StillImage" />
        <dc:title></dc:title>
      </cc:Work>
    </rdf:RDF>
  </metadata>
  <g
     inkscape:label="Layer 1"
     inkscape:groupmode="layer"
     id="layer1">
    <text
       xml:space="preserve"
       style="font-style:normal;font-weight:normal;font-size:7.5px;line-height:125%;font-family:sans-serif;letter-spacing:0px;word-spacing:0px;fill:#000000;fill-opacity:1;stroke:none;stroke-width:1px;stroke-linecap:butt;stroke-linejoin:miter;stroke-opacity:1"
       x="149.45535"
       y="467.29974"
       id="text4138"
       sodipodi:linespacing="125%"><tspan
         sodipodi:role="line"
         id="tspan4140"
         x="149.45535"
         y="467.29974">A</tspan></text>
    <text
       xml:space="preserve"
       style="font-style:normal;font-weight:normal;font-size:7.5px;line-height:125%;font-family:sans-serif;letter-spacing:0px;word-spacing:0px;fill:#000000;fill-opacity:1;stroke:none;stroke-width:1px;stroke-linecap:butt;stroke-linejoin:miter;stroke-opacity:1"
       x="149.33035"
       y="477.36221"
       id="text4142"
       sodipodi:linespacing="125%"><tspan
         sodipodi:role="line"
         id="tspan4144"
         x="149.33035"
         y="477.36221">B</tspan><tspan
         sodipodi:role="line"
         x="149.33035"
         y="486.73721"
         id="tspan4146" /></text>
    <path
       style="fill:none;fill-rule:evenodd;stroke:#000000;stroke-width:0.5;stroke-linecap:round;stroke-linejoin:round;stroke-miterlimit:4;stroke-dasharray:none;stroke-opacity:1"
       d="m 127.53878,477.02052 15,0 0,-20 -15,0 z"
       id="path5233"
       inkscape:connector-curvature="0" />
    <path
       style="fill:#000000;fill-opacity:1;fill-rule:evenodd;stroke:#000000;stroke-width:1.57779717;stroke-linecap:round;stroke-linejoin:round;stroke-miterlimit:4;stroke-dasharray:none;stroke-opacity:1"
       d="m 132.27763,470.86493 c 0,0 5.5223,0 5.5223,0 l 0,6.31118 c 0,0 -5.5223,0 -5.5223,0 z"
       id="path5235"
       inkscape:connector-curvature="0" />
    <path
       style="fill:none;fill-rule:evenodd;stroke:#000000;stroke-width:0.5;stroke-linecap:butt;stroke-linejoin:miter;stroke-miterlimit:4;stroke-dasharray:none;stroke-opacity:1"
       d="m 157,467.3622 c 0,0 10,0 10,0 l 0,-5 10,0 0,5 5,0"
       id="path5250"
       inkscape:connector-curvature="0" />
    <path
       style="fill:none;fill-rule:evenodd;stroke:#000000;stroke-width:0.5;stroke-linecap:butt;stroke-linejoin:miter;stroke-miterlimit:4;stroke-dasharray:1, 1;stroke-dashoffset:0;stroke-opacity:1"
       d="m 182,467.3622 c 0,0 5,0 5,0 l 0,-5 8,0"
       id="path5252"
       inkscape:connector-curvature="0" />
    <path
       style="fill:none;fill-rule:evenodd;stroke:#000000;stroke-width:0.5;stroke-linecap:butt;stroke-linejoin:miter;stroke-miterlimit:4;stroke-dasharray:none;stroke-opacity:1"
       d="m 157,472.3622 5,0 c 0,0 0,5 0,5 l 10,0 0,-5 c 0,0 10,0 10,0 l 0,5"
       id="path5254"
       inkscape:connector-curvature="0" />
    <path
       style="fill:none;fill-rule:evenodd;stroke:#000000;stroke-width:0.5;stroke-linecap:butt;stroke-linejoin:miter;stroke-miterlimit:4;stroke-dasharray:1, 1;stroke-dashoffset:0;stroke-opacity:1"
       d="m 182,477.3622 10,0 0,-5 5,0"
       id="path5256"
       inkscape:connector-curvature="0" />
    <path
       style="fill:none;fill-rule:evenodd;stroke:#000000;stroke-width:0.5;stroke-linecap:butt;stroke-linejoin:miter;stroke-miterlimit:4;stroke-dasharray:1, 1;stroke-dashoffset:0;stroke-opacity:1"
       d="m 196.0105,462.3622 -3,0"
       id="path5258"
       inkscape:connector-curvature="0" />
    <text
       xml:space="preserve"
       style="font-style:normal;font-weight:normal;font-size:5px;line-height:125%;font-family:sans-serif;letter-spacing:0px;word-spacing:0px;fill:#000000;fill-opacity:1;stroke:none;stroke-width:1px;stroke-linecap:butt;stroke-linejoin:miter;stroke-opacity:1"
       x="219.57645"
       y="471.8454"
       id="text5281"
       sodipodi:linespacing="125%"><tspan
         sodipodi:role="line"
         id="tspan5283"
         x="219.57645"
         y="471.8454">RS422</tspan></text>
    <path
       style="fill:none;fill-rule:evenodd;stroke:#000000;stroke-width:0.5;stroke-linecap:butt;stroke-linejoin:miter;stroke-miterlimit:4;stroke-dasharray:none;stroke-opacity:1;marker-end:url(#Arrow2Mend)"
       d="m 199,469.867 14,0"
       id="path5285"
       inkscape:connector-curvature="0" />
    <path
       style="fill:none;fill-rule:evenodd;stroke:#000000;stroke-width:0.5;stroke-linecap:butt;stroke-linejoin:miter;stroke-opacity:1;stroke-miterlimit:4;stroke-dasharray:none"
       d="m 215,472.3622 c 0,0 0,5 5,5 5,0 15,0 15,0 0,0 5,0 5,-5 0,-5 0,-5 0,-5 0,0 0,-5 -5,-5 -5,0 -15,0 -15,0 0,0 -5,0 -5,5 0,5 0,5 0,5 z"
       id="path5609"
       inkscape:connector-curvature="0" />
    <text
       xml:space="preserve"
       style="font-style:normal;font-weight:normal;font-size:5px;line-height:125%;font-family:sans-serif;letter-spacing:0px;word-spacing:0px;fill:#000000;fill-opacity:1;stroke:none;stroke-width:1px;stroke-linecap:butt;stroke-linejoin:miter;stroke-opacity:1"
       x="265.15594"
       y="471.8454"
       id="text5281-3"
       sodipodi:linespacing="125%"><tspan
         sodipodi:role="line"
         id="tspan5283-5"
         x="265.15594"
         y="471.8454">TTL</tspan></text>
    <path
       style="fill:none;fill-rule:evenodd;stroke:#000000;stroke-width:0.5;stroke-linecap:butt;stroke-linejoin:miter;stroke-miterlimit:4;stroke-dasharray:none;stroke-opacity:1;marker-end:url(#marker5665)"
       d="m 241.0407,469.867 14,0"
       id="path5285-6"
       inkscape:connector-curvature="0" />
    <path
       style="fill:none;fill-rule:evenodd;stroke:#000000;stroke-width:0.5;stroke-linecap:butt;stroke-linejoin:miter;stroke-miterlimit:4;stroke-dasharray:none;stroke-opacity:1"
       d="m 257.0407,472.36219 c 0,0 0,5 5,5 5,0 15,0 15,0 0,0 5,0 5,-5 0,-4.99999 0,-4.99999 0,-4.99999 0,0 0,-5 -5,-5 -5,0 -15,0 -15,0 0,0 -5,0 -5,5 0,4.99999 0,4.99999 0,4.99999 z"
       id="path5609-2"
       inkscape:connector-curvature="0" />
    <text
       xml:space="preserve"
       style="font-style:normal;font-weight:normal;font-size:5px;line-height:125%;font-family:sans-serif;letter-spacing:0px;word-spacing:0px;fill:#000000;fill-opacity:1;stroke:none;stroke-width:1px;stroke-linecap:butt;stroke-linejoin:miter;stroke-opacity:1"
       x="303.39355"
       y="471.24161"
       id="text5281-3-2"
       sodipodi:linespacing="125%"><tspan
         sodipodi:role="line"
         id="tspan5283-5-7"
         x="303.39355"
         y="471.24161">μController</tspan></text>
    <path
       style="fill:none;fill-rule:evenodd;stroke:#000000;stroke-width:0.5;stroke-linecap:butt;stroke-linejoin:miter;stroke-miterlimit:4;stroke-dasharray:none;stroke-opacity:1;marker-end:url(#marker5780)"
       d="m 284.0407,469.867 14,0"
       id="path5285-6-0"
       inkscape:connector-curvature="0" />
    <path
       style="fill:none;fill-rule:evenodd;stroke:#000000;stroke-width:0.5;stroke-linecap:butt;stroke-linejoin:miter;stroke-opacity:1;stroke-miterlimit:4;stroke-dasharray:none"
       d="m 300,467.3622 c 0,0 0,-5 5,-5 5,0 25,0 25,0 0,0 5,0 5,5 0,5 0,5 0,5 0,0 0,5 -5,5 -5,0 -25,0 -25,0 0,0 -5,0 -5,-5 0,-5 0,-5 0,-5"
       id="path5832"
       inkscape:connector-curvature="0" />
    <path
       style="fill:none;fill-rule:evenodd;stroke:#000000;stroke-width:0.5;stroke-linecap:butt;stroke-linejoin:miter;stroke-miterlimit:4;stroke-dasharray:none;stroke-opacity:1;marker-end:url(#marker11203)"
       d="m 318,479.3622 0,5 c 0,0 0,5 -5,5 -5,0 -145,0 -145,0 0,0 -5,0 -5,5 0,5 0,5 0,5"
       id="path11174"
       inkscape:connector-curvature="0" />
    <text
       xml:space="preserve"
       style="font-style:normal;font-weight:normal;font-size:5px;line-height:125%;font-family:sans-serif;letter-spacing:0px;word-spacing:0px;fill:#000000;fill-opacity:1;stroke:none;stroke-width:1px;stroke-linecap:butt;stroke-linejoin:miter;stroke-opacity:1"
       x="159.02231"
       y="511.10382"
       id="text5281-0"
       sodipodi:linespacing="125%"><tspan
         sodipodi:role="line"
         id="tspan5283-6"
         x="159.02231"
         y="511.10382">SPI</tspan></text>
    <path
       style="fill:none;fill-rule:evenodd;stroke:#000000;stroke-width:0.5;stroke-linecap:butt;stroke-linejoin:miter;stroke-miterlimit:4;stroke-dasharray:none;stroke-opacity:1"
       d="m 150.44588,511.62067 c 0,0 0,5 5,5 5,0 15,0 15,0 0,0 5,0 5,-5 0,-4.99999 0,-4.99999 0,-4.99999 0,0 0,-5 -5,-5 -5,0 -15,0 -15,0 0,0 -5,0 -5,5 0,4.99999 0,4.99999 0,4.99999 z"
       id="path5609-26"
       inkscape:connector-curvature="0" />
    <path
       style="fill:none;fill-rule:evenodd;stroke:#000000;stroke-width:0.5;stroke-linecap:butt;stroke-linejoin:miter;stroke-miterlimit:4;stroke-dasharray:none;stroke-opacity:1;marker-end:url(#marker5665-1)"
       d="m 177.02035,508.80338 14,0"
       id="path5285-6-7"
       inkscape:connector-curvature="0" />
    <text
       xml:space="preserve"
       style="font-style:normal;font-weight:normal;font-size:5px;line-height:125%;font-family:sans-serif;letter-spacing:0px;word-spacing:0px;fill:#000000;fill-opacity:1;stroke:none;stroke-width:1px;stroke-linecap:butt;stroke-linejoin:miter;stroke-opacity:1"
       x="200.66415"
       y="510.73523"
       id="text5281-0-9"
       sodipodi:linespacing="125%"><tspan
         sodipodi:role="line"
         id="tspan5283-6-2"
         x="200.66415"
         y="510.73523">NRF</tspan></text>
    <path
       style="fill:none;fill-rule:evenodd;stroke:#000000;stroke-width:0.5;stroke-linecap:butt;stroke-linejoin:miter;stroke-miterlimit:4;stroke-dasharray:none;stroke-opacity:1"
       d="m 193.20668,511.27319 c 0,0 0,5 5,5 5,0 15,0 15,0 0,0 5,0 5,-5 0,-4.99998 0,-4.99998 0,-4.99998 0,0 0,-5 -5,-5 -5,0 -15,0 -15,0 0,0 -5,0 -5,5 0,4.99998 0,4.99998 0,4.99998 z"
       id="path5609-26-0"
       inkscape:connector-curvature="0" />
    <g
       transform="matrix(0.38504667,0,0,0.38504667,7.277242,494.44395)"
       id="g8665-9-8"
       inkscape:transform-center-x="0.50346372"
       inkscape:transform-center-y="-0.91065341">
      <path
         style="fill:none;fill-opacity:1;stroke:#000000;stroke-width:1;stroke-linejoin:round;stroke-miterlimit:4;stroke-dasharray:none;stroke-dashoffset:0;stroke-opacity:1"
         id="path4994-9-8-15-6-8"
         sodipodi:type="arc"
         sodipodi:cx="547.42383"
         sodipodi:cy="38.522106"
         sodipodi:rx="10"
         sodipodi:ry="10"
         sodipodi:start="5.2359878"
         sodipodi:end="1.0471976"
         d="m 552.42383,29.861852 a 10,10 0 0 1 5,8.660255 10,10 0 0 1 -5,8.660253"
         sodipodi:open="true" />
      <path
         style="fill:none;fill-opacity:1;stroke:#000000;stroke-width:1;stroke-linejoin:round;stroke-miterlimit:4;stroke-dasharray:none;stroke-dashoffset:0;stroke-opacity:1"
         id="path4996-3-7-9-1-4"
         sodipodi:type="arc"
         sodipodi:cx="547.42383"
         sodipodi:cy="38.522106"
         sodipodi:rx="15"
         sodipodi:ry="15"
         sodipodi:start="5.2359878"
         sodipodi:end="1.0471976"
         sodipodi:open="true"
         d="m 554.92383,25.531725 a 15,15 0 0 1 7.5,12.990382 15,15 0 0 1 -7.5,12.990381" />
      <path
         style="fill:none;fill-opacity:1;stroke:#000000;stroke-width:1;stroke-linejoin:round;stroke-miterlimit:4;stroke-dasharray:none;stroke-dashoffset:0;stroke-opacity:1"
         id="path4998-6-9-7-0-3"
         sodipodi:type="arc"
         sodipodi:cx="547.42383"
         sodipodi:cy="38.522106"
         sodipodi:rx="20"
         sodipodi:ry="20"
         sodipodi:start="5.2359878"
         sodipodi:end="1.0471976"
         sodipodi:open="true"
         d="m 557.42383,21.201599 a 20,20 0 0 1 10,17.320508 20,20 0 0 1 -10,17.320508" />
    </g>
    <text
       xml:space="preserve"
       style="font-style:normal;font-weight:normal;font-size:5px;line-height:125%;font-family:sans-serif;letter-spacing:0px;word-spacing:0px;fill:#000000;fill-opacity:1;stroke:none;stroke-width:1px;stroke-linecap:butt;stroke-linejoin:miter;stroke-opacity:1"
       x="249.50583"
       y="510.73523"
       id="text5281-0-9-2"
       sodipodi:linespacing="125%"><tspan
         sodipodi:role="line"
         id="tspan5283-6-2-3"
         x="249.50583"
         y="510.73523">NRF</tspan></text>
    <path
       style="fill:none;fill-rule:evenodd;stroke:#000000;stroke-width:0.5;stroke-linecap:butt;stroke-linejoin:miter;stroke-miterlimit:4;stroke-dasharray:none;stroke-opacity:1"
       d="m 266.80458,511.27318 c 0,0 0,5 -5,5 -5,0 -15,0 -15,0 0,0 -5,0 -5,-5 0,-4.99997 0,-4.99997 0,-4.99997 0,0 0,-5 5,-5 5,0 15,0 15,0 0,0 5,0 5,5 0,4.99997 0,4.99997 0,4.99997 z"
       id="path5609-26-0-7"
       inkscape:connector-curvature="0" />
    <g
       transform="matrix(-0.38504667,0,0,0.38504667,452.73402,494.44395)"
       id="g8665-9-8-5"
       inkscape:transform-center-x="-0.50346631"
       inkscape:transform-center-y="-0.91065341">
      <path
         style="fill:none;fill-opacity:1;stroke:#000000;stroke-width:1;stroke-linejoin:round;stroke-miterlimit:4;stroke-dasharray:none;stroke-dashoffset:0;stroke-opacity:1"
         id="path4994-9-8-15-6-8-9"
         sodipodi:type="arc"
         sodipodi:cx="547.42383"
         sodipodi:cy="38.522106"
         sodipodi:rx="10"
         sodipodi:ry="10"
         sodipodi:start="5.2359878"
         sodipodi:end="1.0471976"
         d="m 552.42383,29.861852 a 10,10 0 0 1 5,8.660255 10,10 0 0 1 -5,8.660253"
         sodipodi:open="true" />
      <path
         style="fill:none;fill-opacity:1;stroke:#000000;stroke-width:1;stroke-linejoin:round;stroke-miterlimit:4;stroke-dasharray:none;stroke-dashoffset:0;stroke-opacity:1"
         id="path4996-3-7-9-1-4-2"
         sodipodi:type="arc"
         sodipodi:cx="547.42383"
         sodipodi:cy="38.522106"
         sodipodi:rx="15"
         sodipodi:ry="15"
         sodipodi:start="5.2359878"
         sodipodi:end="1.0471976"
         sodipodi:open="true"
         d="m 554.92383,25.531725 a 15,15 0 0 1 7.5,12.990382 15,15 0 0 1 -7.5,12.990381" />
      <path
         style="fill:none;fill-opacity:1;stroke:#000000;stroke-width:1;stroke-linejoin:round;stroke-miterlimit:4;stroke-dasharray:none;stroke-dashoffset:0;stroke-opacity:1"
         id="path4998-6-9-7-0-3-2"
         sodipodi:type="arc"
         sodipodi:cx="547.42383"
         sodipodi:cy="38.522106"
         sodipodi:rx="20"
         sodipodi:ry="20"
         sodipodi:start="5.2359878"
         sodipodi:end="1.0471976"
         sodipodi:open="true"
         d="m 557.42383,21.201599 a 20,20 0 0 1 10,17.320508 20,20 0 0 1 -10,17.320508" />
    </g>
    <text
       xml:space="preserve"
       style="font-style:normal;font-weight:normal;font-size:5px;line-height:125%;font-family:sans-serif;letter-spacing:0px;word-spacing:0px;fill:#000000;fill-opacity:1;stroke:none;stroke-width:1px;stroke-linecap:butt;stroke-linejoin:miter;stroke-opacity:1"
       x="216.37959"
       y="525.14221"
       id="text5281-0-9-8"
       sodipodi:linespacing="125%"><tspan
         sodipodi:role="line"
         id="tspan5283-6-2-9"
         x="216.37959"
         y="525.14221">Air Transfer</tspan></text>
    <text
       xml:space="preserve"
       style="font-style:normal;font-weight:normal;font-size:5px;line-height:125%;font-family:sans-serif;letter-spacing:0px;word-spacing:0px;fill:#000000;fill-opacity:1;stroke:none;stroke-width:1px;stroke-linecap:butt;stroke-linejoin:miter;stroke-opacity:1"
       x="292.849"
       y="510.78717"
       id="text5281-0-6"
       sodipodi:linespacing="125%"><tspan
         sodipodi:role="line"
         id="tspan5283-6-1"
         x="292.849"
         y="510.78717">SPI</tspan></text>
    <path
       style="fill:none;fill-rule:evenodd;stroke:#000000;stroke-width:0.5;stroke-linecap:butt;stroke-linejoin:miter;stroke-miterlimit:4;stroke-dasharray:none;stroke-opacity:1"
       d="m 284.27257,511.304 c 0,0 0,5 5,5 5,0 15,0 15,0 0,0 5,0 5,-5 0,-4.99998 0,-4.99998 0,-4.99998 0,0 0,-5 -5,-5 -5,0 -15,0 -15,0 0,0 -5,0 -5,5 0,4.99998 0,4.99998 0,4.99998 z"
       id="path5609-26-2"
       inkscape:connector-curvature="0" />
    <path
       style="fill:none;fill-rule:evenodd;stroke:#000000;stroke-width:0.5;stroke-linecap:butt;stroke-linejoin:miter;stroke-miterlimit:4;stroke-dasharray:none;stroke-opacity:1;marker-end:url(#marker13657)"
       d="m 311.04494,508.84184 14,0"
       id="path5285-6-7-9"
       inkscape:connector-curvature="0" />
    <path
       style="fill:none;fill-rule:evenodd;stroke:#000000;stroke-width:0.5;stroke-linecap:butt;stroke-linejoin:miter;stroke-miterlimit:4;stroke-dasharray:none;stroke-opacity:1;marker-end:url(#marker5665-1-3)"
       d="m 268.02035,508.80338 14,0"
       id="path5285-6-7-94"
       inkscape:connector-curvature="0" />
    <text
       xml:space="preserve"
       style="font-style:normal;font-weight:normal;font-size:5px;line-height:125%;font-family:sans-serif;letter-spacing:0px;word-spacing:0px;fill:#000000;fill-opacity:1;stroke:none;stroke-width:1px;stroke-linecap:butt;stroke-linejoin:miter;stroke-opacity:1"
       x="331.98328"
       y="510.7312"
       id="text5281-0-6-7"
       sodipodi:linespacing="125%"><tspan
         sodipodi:role="line"
         id="tspan5283-6-1-8"
         x="331.98328"
         y="510.7312">MicroZed</tspan></text>
    <path
       style="fill:none;fill-rule:evenodd;stroke:#000000;stroke-width:0.5;stroke-linecap:butt;stroke-linejoin:miter;stroke-miterlimit:4;stroke-dasharray:none;stroke-opacity:1"
       d="m 326.4327,506.2578 c 0,0 0,-5 5,-5 5,0 25,0 25,0 0,0 5,0 5,5 0,4.99999 0,4.99999 0,4.99999 0,0 0,5 -5,5 -5,0 -25,0 -25,0 0,0 -5,0 -5,-5 0,-4.99999 0,-4.99999 0,-4.99999"
       id="path5832-5"
       inkscape:connector-curvature="0" />
    <path
       style="fill:#000000;fill-opacity:1;fill-rule:evenodd;stroke:#000000;stroke-width:1px;stroke-linecap:butt;stroke-linejoin:miter;stroke-opacity:1"
       d="m 125,480.27254 c 0,0 -1,0 -1,1 0,1 1,1 1,1 l 20,0 c 0,0 1,0 1,-1 0,-1 -1,-1 -1,-1 0,0 -20,0 -20,0 z"
       id="path13750"
       inkscape:connector-curvature="0" />
  </g>
</svg>
