<?xml version="1.0" encoding="UTF-8" standalone="no"?>
<!-- Created with Inkscape (http://www.inkscape.org/) -->

<svg
   xmlns:dc="http://purl.org/dc/elements/1.1/"
   xmlns:cc="http://creativecommons.org/ns#"
   xmlns:rdf="http://www.w3.org/1999/02/22-rdf-syntax-ns#"
   xmlns:svg="http://www.w3.org/2000/svg"
   xmlns="http://www.w3.org/2000/svg"
   xmlns:sodipodi="http://sodipodi.sourceforge.net/DTD/sodipodi-0.dtd"
   xmlns:inkscape="http://www.inkscape.org/namespaces/inkscape"
   width="210mm"
   height="297mm"
   viewBox="0 0 744.09448819 1052.3622047"
   id="svg4881"
   version="1.1"
   inkscape:version="0.91 r13725"
   sodipodi:docname="usecase.svg">
  <defs
     id="defs4883">
    <marker
       inkscape:stockid="Arrow1Mend"
       orient="auto"
       refY="0.0"
       refX="0.0"
       id="Arrow1Mend"
       style="overflow:visible;"
       inkscape:isstock="true">
      <path
         id="path4454"
         d="M 0.0,0.0 L 5.0,-5.0 L -12.5,0.0 L 5.0,5.0 L 0.0,0.0 z "
         style="fill-rule:evenodd;stroke:#000000;stroke-width:1pt;stroke-opacity:1;fill:#000000;fill-opacity:1"
         transform="scale(0.4) rotate(180) translate(10,0)" />
    </marker>
    <marker
       inkscape:stockid="Arrow1Mend"
       orient="auto"
       refY="0"
       refX="0"
       id="Arrow1Mend-7"
       style="overflow:visible"
       inkscape:isstock="true">
      <path
         inkscape:connector-curvature="0"
         id="path4454-8"
         d="M 0,0 5,-5 -12.5,0 5,5 0,0 Z"
         style="fill:#000000;fill-opacity:1;fill-rule:evenodd;stroke:#000000;stroke-width:1pt;stroke-opacity:1"
         transform="matrix(-0.4,0,0,-0.4,-4,0)" />
    </marker>
    <marker
       inkscape:stockid="Arrow1Mend"
       orient="auto"
       refY="0"
       refX="0"
       id="Arrow1Mend-5"
       style="overflow:visible"
       inkscape:isstock="true">
      <path
         inkscape:connector-curvature="0"
         id="path4454-0"
         d="M 0,0 5,-5 -12.5,0 5,5 0,0 Z"
         style="fill:#000000;fill-opacity:1;fill-rule:evenodd;stroke:#000000;stroke-width:1pt;stroke-opacity:1"
         transform="matrix(-0.4,0,0,-0.4,-4,0)" />
    </marker>
  </defs>
  <sodipodi:namedview
     id="base"
     pagecolor="#ffffff"
     bordercolor="#666666"
     borderopacity="1.0"
     inkscape:pageopacity="0.0"
     inkscape:pageshadow="2"
     inkscape:zoom="2.8"
     inkscape:cx="335.29034"
     inkscape:cy="520.61892"
     inkscape:document-units="px"
     inkscape:current-layer="layer1"
     showgrid="true"
     inkscape:window-width="1280"
     inkscape:window-height="1367"
     inkscape:window-x="0"
     inkscape:window-y="27"
     inkscape:window-maximized="0">
    <inkscape:grid
       type="xygrid"
       id="grid4889" />
  </sodipodi:namedview>
  <metadata
     id="metadata4886">
    <rdf:RDF>
      <cc:Work
         rdf:about="">
        <dc:format>image/svg+xml</dc:format>
        <dc:type
           rdf:resource="http://purl.org/dc/dcmitype/StillImage" />
        <dc:title></dc:title>
      </cc:Work>
    </rdf:RDF>
  </metadata>
  <g
     inkscape:label="Layer 1"
     inkscape:groupmode="layer"
     id="layer1">
    <path
       style="fill:none;fill-rule:evenodd;stroke:#000000;stroke-width:3.05780005;stroke-linecap:round;stroke-linejoin:miter;stroke-miterlimit:4;stroke-dasharray:none;stroke-opacity:1"
       d="m 276.02711,534.84647 7.6445,-22.9335"
       id="path8334"
       inkscape:connector-curvature="0" />
    <path
       style="fill:none;fill-rule:evenodd;stroke:#000000;stroke-width:3.05780005;stroke-linecap:round;stroke-linejoin:miter;stroke-miterlimit:4;stroke-dasharray:none;stroke-opacity:1"
       d="m 291.31611,534.84647 -7.6445,-22.9335 0,-15.289"
       id="path8336"
       inkscape:connector-curvature="0" />
    <path
       style="fill:none;fill-rule:evenodd;stroke:#000000;stroke-width:3.05780005;stroke-linecap:round;stroke-linejoin:miter;stroke-miterlimit:4;stroke-dasharray:none;stroke-opacity:1"
       d="m 268.38261,509.87213 15.289,-7.6445 15.289,7.6445"
       id="path8338"
       inkscape:connector-curvature="0" />
    <circle
       style="fill:#000000;fill-opacity:1;stroke:#000000;stroke-width:4.58669996;stroke-linecap:round;stroke-linejoin:round;stroke-miterlimit:4;stroke-dasharray:18.34680028, 18.34680028;stroke-dashoffset:0;stroke-opacity:1"
       id="path8340"
       cx="283.67166"
       cy="493.56616"
       r="3.0578001" />
    <text
       xml:space="preserve"
       style="font-style:normal;font-weight:normal;font-size:29.34983635px;line-height:125%;font-family:sans-serif;letter-spacing:0px;word-spacing:0px;fill:#000000;fill-opacity:1;stroke:none;stroke-width:1px;stroke-linecap:butt;stroke-linejoin:miter;stroke-opacity:1"
       x="283.29199"
       y="481.01703"
       id="text4740-7-5-4"
       sodipodi:linespacing="125%"><tspan
         sodipodi:role="line"
         x="283.29199"
         y="481.01703"
         style="font-size:11.00618839px;text-align:center;text-anchor:middle"
         id="tspan7201-7">User</tspan></text>
    <text
       xml:space="preserve"
       style="font-style:normal;font-weight:normal;font-size:29.34983635px;line-height:125%;font-family:sans-serif;letter-spacing:0px;word-spacing:0px;fill:#000000;fill-opacity:1;stroke:none;stroke-width:1px;stroke-linecap:butt;stroke-linejoin:miter;stroke-opacity:1"
       x="412.70438"
       y="486.70953"
       id="text4740-7-5"
       sodipodi:linespacing="125%"><tspan
         sodipodi:role="line"
         x="414.45633"
         y="486.70953"
         style="font-size:11.00618839px;text-align:center;text-anchor:middle"
         id="tspan7201">Regulate </tspan><tspan
         sodipodi:role="line"
         x="412.70438"
         y="500.46725"
         style="font-size:11.00618839px;text-align:center;text-anchor:middle"
         id="tspan5770">temperature</tspan></text>
    <path
       style="fill:none;fill-rule:evenodd;stroke:#000000;stroke-width:1px;stroke-linecap:butt;stroke-linejoin:miter;stroke-opacity:1"
       d="m 360.29241,482.11607 c 0,0 0,-10.00004 10,-10.00004 10,0 85,0 85,0 0,0 10,0 10,10.00004 0,10 0,15 0,15 0,0 0,10 -10,10 -10,0 -85,0 -85,0 0,0 -10,0 -10,-10 0,-10 0,-10 0,-10 z"
       id="path7205"
       inkscape:connector-curvature="0" />
    <text
       xml:space="preserve"
       style="font-style:normal;font-weight:normal;font-size:29.34983635px;line-height:125%;font-family:sans-serif;letter-spacing:0px;word-spacing:0px;fill:#000000;fill-opacity:1;stroke:none;stroke-width:1px;stroke-linecap:butt;stroke-linejoin:miter;stroke-opacity:1"
       x="412.70438"
       y="538.69916"
       id="text4740-7-5-3"
       sodipodi:linespacing="125%"><tspan
         sodipodi:role="line"
         x="412.70438"
         y="538.69916"
         style="font-size:11.00618839px;text-align:center;text-anchor:middle"
         id="tspan5770-9">Set scale range</tspan></text>
    <path
       style="fill:none;fill-rule:evenodd;stroke:#000000;stroke-width:1px;stroke-linecap:butt;stroke-linejoin:miter;stroke-opacity:1"
       d="m 360.29241,527.11607 c 0,0 0,-10.00004 10,-10.00004 10,0 85,0 85,0 0,0 10,0 10,10.00004 0,10 0,15 0,15 0,0 0,10 -10,10 -10,0 -85,0 -85,0 0,0 -10,0 -10,-10 0,-10 0,-10 0,-10 z"
       id="path7205-4"
       inkscape:connector-curvature="0" />
    <text
       xml:space="preserve"
       style="font-style:normal;font-weight:normal;font-size:12.5px;line-height:125%;font-family:sans-serif;letter-spacing:0px;word-spacing:0px;fill:#000000;fill-opacity:1;stroke:none;stroke-width:1px;stroke-linecap:butt;stroke-linejoin:miter;stroke-opacity:1"
       x="410"
       y="537.36218"
       id="text5798"
       sodipodi:linespacing="125%"><tspan
         sodipodi:role="line"
         id="tspan5800"
         x="410"
         y="537.36218" /></text>
    <path
       style="fill:none;fill-rule:evenodd;stroke:#000000;stroke-width:1px;stroke-linecap:butt;stroke-linejoin:miter;stroke-opacity:1;marker-end:url(#Arrow1Mend)"
       d="m 305,517.3622 20,0 c 0,0 5,0 5,5 0,5 0,8 0,8 0,0 0,5 5,5 5,0 20,0 20,0"
       id="path6521"
       inkscape:connector-curvature="0" />
    <path
       style="fill:none;fill-rule:evenodd;stroke:#000000;stroke-width:1px;stroke-linecap:butt;stroke-linejoin:miter;stroke-opacity:1;marker-end:url(#Arrow1Mend-5)"
       d="m 305.07321,507.44083 20,0 c 0,0 5,0 5,-5 0,-5 0,-8 0,-8 0,0 0,-5 5,-5 5,0 20,0 20,0"
       id="path6521-3"
       inkscape:connector-curvature="0" />
  </g>
</svg>
